# xmcd
#
# Track frame offsets: 
#        150
#        15067
#        30309
#        40483
#        52917
#        64366
#        75622
#        85984
#        99093
#        109729
#        117639
#        130449
#        140841
#        153294
#        163828
#        176842
#        191191
#        202729
#        223248
#        234958
#        251580
#        261922
#
# Disc length: 3651 seconds
#
# Revision: 0
# Processed by: cddbd v1.5.2PL0 Copyright (c) Steve Scherf et al.
# Submitted via: ExactAudioCopy v0.99pb3
#
DISCID=330e4116
DTITLE=Various Artist - Terrace Industry (M Squared Box 1980-1983) [CD4]
DYEAR=2010
DGENRE=Ascension
TTITLE0=Ya Ya Choral - Waiting Time
TTITLE1=Ya Ya Choral - Cowboys Are Pt 2
TTITLE2=Ya Ya Choral - No Control
TTITLE3=Ya Ya Choral - Nonsense
TTITLE4=Ya Ya Choral - Jolly Work
TTITLE5=Ya Ya Choral - My Friend The Chocolate Cake
TTITLE6=Ya Ya Choral - You Ruined My Fun
TTITLE7=Ya Ya Choral - God's Buzzsaw
TTITLE8=Belle Du Soir - Treasure Island
TTITLE9=Belle Du Soir - Ultramarine
TTITLE10=Pel Mel - Click Click
TTITLE11=Wild West - Pelican
TTITLE12=The Limp - Pony Club
TTITLE13=Tame O' Mearas - Curl Curl
TTITLE14=No Night Sweats - Harry Wong's Cat
TTITLE15=Denial - California Dreaming
TTITLE16=The Same - Why
TTITLE17=Slugfuckers - Dolphins Are Not Fish
TTITLE18=Pleasant Peasants - Pussman Polka
TTITLE19=Severed Heads - Eat Roland
TTITLE20=Terse - Hello M Squared
TTITLE21=M Squared - Hello Terse
EXTD=
EXTT0=
EXTT1=
EXTT2=
EXTT3=
EXTT4=
EXTT5=
EXTT6=
EXTT7=
EXTT8=
EXTT9=
EXTT10=
EXTT11=
EXTT12=
EXTT13=
EXTT14=
EXTT15=
EXTT16=
EXTT17=
EXTT18=
EXTT19=
EXTT20=
EXTT21=
PLAYORDER=
